#!OML:ASF X:\für Bonn\!DataBase\2005_08_12_Daniel\c3d\Daniel.ASF
:FULLY-SPECIFIED
:DEGREES
424
root 14.9439 1.29901 1.01678 -720.718 -83.8174 -100.758
lowerback 16.7045 -2.83486 2.70347
upperback 0.538087 -3.43283 -1.10734
thorax -9.03158 -1.82767 -1.88831
lowerneck -11.1956 0.939138 -11.0815
upperneck 6.73651 2.46224 4.89898
head 3.63182 1.17554 3.44203
rclavicle 2.26615e-014 -6.23687e-014
rhumerus -52.1292 -20.0022 -60.0763
rradius 11.4225
rwrist 73.838
rhand -12.6097 -343.723
rfingers 7.12502
rthumb 13.4694 -373.267
lclavicle 2.26615e-014 -6.23687e-014
lhumerus -408.175 9.83195 -291.146
lradius 15.6648
lwrist -58.4861
lhand -7.02069 350.965
lfingers 7.12502
lthumb 18.8509 380.072
rfemur 190.405 -192.775 197.986
rtibia 17.7904
rfoot -9.09781 -34.1435
rtoes 25.8513
lfemur 1.06885 -25.2201 -18.7128
ltibia 29.4148
lfoot 0.428429 29.672
ltoes 11.6262
425
root 14.9508 1.29563 1.01842 -720.693 -83.8241 -100.743
lowerback 16.7187 -2.83923 2.7336
upperback 0.482206 -3.43122 -1.11252
thorax -9.10295 -1.82865 -1.9095
lowerneck -11.2677 0.908304 -11.1297
upperneck 6.76514 2.43232 4.94806
head 3.65346 1.16219 3.46479
rclavicle 7.5737e-014 -1.3331e-014
rhumerus -52.2625 -20.1825 -59.7856
rradius 11.4128
rwrist 74.2786
rhand -12.5282 -343.831
rfingers 7.12502
rthumb 13.5479 -373.37
lclavicle 7.5737e-014 -1.3331e-014
lhumerus -408.258 10.0516 -291.414
lradius 15.6166
lwrist -58.8288
lhand -6.82585 351.053
lfingers 7.12502
lthumb 19.0383 380.141
rfemur 190.505 -193.171 198.11
rtibia 17.6118
rfoot -9.76662 -34.2825
rtoes 26.061
lfemur 1.05079 -25.2587 -18.667
ltibia 29.4066
lfoot -0.19055 29.9055
ltoes 11.5012
426
root 14.9568 1.29124 1.01982 -720.599 -83.8521 -100.797
lowerback 16.7425 -2.85025 2.75871
upperback 0.430537 -3.43911 -1.11313
thorax -9.17515 -1.834 -1.92024
lowerneck -11.3946 0.890385 -11.1646
upperneck 6.83303 2.42374 4.99789
head 3.69438 1.15928 3.48814
rclavicle -3.97569e-016 2.56805e-014
rhumerus -52.3364 -20.3021 -59.5541
rradius 11.3848
rwrist 74.726
rhand -12.4998 -343.978
rfingers 7.12502
rthumb 13.5753 -373.515
lclavicle -3.97569e-016 2.56805e-014
lhumerus -408.328 10.2168 -291.636
lradius 15.5767
lwrist -59.0492
lhand -6.63996 351.099
lfingers 7.12502
lthumb 19.2171 380.169
rfemur 190.609 -193.635 198.261
rtibia 17.4253
rfoot -10.6556 -34.4057
rtoes 26.3528
lfemur 1.01412 -25.1809 -18.5788
ltibia 29.4091
lfoot -0.757783 30.0566
ltoes 11.7562
427
root 14.962 1.28664 1.02299 -720.626 -83.9 -100.749
lowerback 16.7797 -2.84336 2.78346
upperback 0.389802 -3.42322 -1.11594
thorax -9.24152 -1.82788 -1.93883
lowerneck -11.4745 0.857709 -11.2339
upperneck 6.85953 2.39405 5.06369
head 3.7162 1.14656 3.51957
rclavicle -1.61016e-014 3.94463e-014
rhumerus -52.4569 -20.5219 -59.2143
rradius 11.3675
rwrist 75.2586
rhand -12.3832 -344.096
rfingers 7.12502
rthumb 13.6877 -373.626
lclavicle -1.61016e-014 3.94463e-014
lhumerus -408.371 10.3152 -291.78
lradius 15.5331
lwrist -59.1761
lhand -6.50672 351.145
lfingers 7.12502
lthumb 19.3452 380.202
rfemur 190.71 -194.018 198.365
rtibia 17.2479
rfoot -11.2091 -34.4861
rtoes 26.5893
lfemur 1.01759 -25.1726 -18.5436
ltibia 29.418
lfoot -1.46144 30.2238
ltoes 12.2317
428
root 14.9678 1.2836 1.02597 -720.797 -83.9701 -100.552
lowerback 16.8109 -2.82662 2.7851
upperback 0.337817 -3.39858 -1.12165
thorax -9.31524 -1.8166 -1.94976
lowerneck -11.5118 0.833533 -11.2708
upperneck 6.86715 2.36788 5.10884
head 3.72573 1.13541 3.53875
rclavicle 2.82274e-014 -4.17448e-015
rhumerus -52.5628 -20.6602 -58.9405
rradius 11.3343
rwrist 75.6842
rhand -12.2915 -344.268
rfingers 7.12502
rthumb 13.7761 -373.792
lclavicle 2.82274e-014 -4.17448e-015
lhumerus -408.45 10.491 -292.002
lradius 15.4949
lwrist -59.4006
lhand -6.40459 351.148
lfingers 7.12502
lthumb 19.4434 380.196
rfemur 190.815 -194.441 198.462
rtibia 17.0788
rfoot -11.916 -34.532
rtoes 26.9237
lfemur 1.0192 -25.1034 -18.5148
ltibia 29.4332
lfoot -2.11248 30.3445
ltoes 12.7335
429
root 14.9726 1.28015 1.02957 -720.831 -84.0376 -100.508
lowerback 16.843 -2.82579 2.81131
upperback 0.310016 -3.39154 -1.12988
thorax -9.36565 -1.81494 -1.97338
lowerneck -11.6283 0.80748 -11.3097
upperneck 6.91815 2.34722 5.16835
head 3.76071 1.12743 3.56472
rclavicle 4.17448e-014 -5.60076e-014
rhumerus -52.6581 -20.869 -58.6271
rradius 11.311
rwrist 76.2682
rhand -12.2112 -344.402
rfingers 7.12502
rthumb 13.8535 -373.921
lclavicle 4.17448e-014 -5.60076e-014
lhumerus -408.495 10.6589 -292.191
lradius 15.4656
lwrist -59.5929
lhand -6.3501 351.171
lfingers 7.12502
lthumb 19.4958 380.214
rfemur 190.929 -194.937 198.609
rtibia 16.9279
rfoot -12.6939 -34.5836
rtoes 27.297
lfemur 1.02785 -25.0379 -18.4687
ltibia 29.4476
lfoot -2.74622 30.4422
ltoes 13.2561
430
root 14.9758 1.27764 1.03304 -721.011 -84.1123 -100.335
lowerback 16.8872 -2.81279 2.8183
upperback 0.282575 -3.37199 -1.1422
thorax -9.42075 -1.8065 -1.9933
lowerneck -11.6696 0.793899 -11.2889
upperneck 6.91126 2.32935 5.18463
head 3.76678 1.12074 3.56594
rclavicle -6.2816e-014 1.16339e-013
rhumerus -52.7209 -20.9351 -58.4688
rradius 11.3118
rwrist 76.6057
rhand -12.0476 -344.571
rfingers 7.12502
rthumb 14.0111 -374.078
lclavicle -6.2816e-014 1.16339e-013
lhumerus -408.549 10.7067 -292.301
lradius 15.4545
lwrist -59.6407
lhand -6.36532 351.218
lfingers 7.12502
lthumb 19.4811 380.262
rfemur 191.055 -195.442 198.744
rtibia 16.7967
rfoot -13.4847 -34.5904
rtoes 27.581
lfemur 1.06515 -24.9306 -18.4433
ltibia 29.4623
lfoot -3.3757 30.5288
ltoes 13.8002
431
root 14.9802 1.27599 1.03622 -721.046 -84.1979 -100.28
lowerback 16.8807 -2.78338 2.82
upperback 0.268394 -3.33141 -1.13694
thorax -9.42992 -1.7869 -1.99886
lowerneck -11.7125 0.766502 -11.3037
upperneck 6.868 2.29769 5.21192
head 3.76263 1.10771 3.57497
rclavicle -8.54774e-014 8.53407e-014
rhumerus -52.7692 -21.0578 -58.2505
rradius 11.3031
rwrist 76.9687
rhand -11.8928 -344.709
rfingers 7.12502
rthumb 14.1603 -374.206
lclavicle -8.54774e-014 8.53407e-014
lhumerus -408.545 10.8139 -292.416
lradius 15.4128
lwrist -59.7604
lhand -6.39245 351.179
lfingers 7.12502
lthumb 19.4551 380.226
rfemur 191.151 -195.995 198.908
rtibia 16.69
rfoot -14.3144 -34.5933
rtoes 27.6743
lfemur 1.08597 -24.865 -18.4032
ltibia 29.475
lfoot -4.12904 30.6023
ltoes 14.4043
432
root 14.9827 1.27482 1.03947 -721.068 -84.2495 -100.264
lowerback 16.9038 -2.78473 2.83329
upperback 0.252694 -3.33001 -1.14091
thorax -9.46119 -1.78718 -2.00981
lowerneck -11.7606 0.75436 -11.2618
upperneck 6.8627 2.28006 5.21852
head 3.77062 1.10121 3.56989
rclavicle 5.58585e-014 -3.37188e-014
rhumerus -52.8229 -21.1823 -58.0547
rradius 11.2989
rwrist 77.3725
rhand -11.7216 -344.829
rfingers 7.12502
rthumb 14.3253 -374.315
lclavicle 5.58585e-014 -3.37188e-014
lhumerus -408.592 10.9444 -292.564
lradius 15.3959
lwrist -59.8866
lhand -6.46324 351.198
lfingers 7.12502
lthumb 19.387 380.252
rfemur 191.259 -196.504 199.086
rtibia 16.6141
rfoot -15.1335 -34.5625
rtoes 27.5914
lfemur 1.10702 -24.7259 -18.3374
ltibia 29.4866
lfoot -4.66275 30.6289
ltoes 14.8221
433
root 14.9839 1.27481 1.04168 -721.306 -84.3064 -100.035
lowerback 16.9014 -2.77427 2.81236
upperback 0.25686 -3.32052 -1.14365
thorax -9.4536 -1.78164 -2.00354
lowerneck -11.8218 0.734906 -11.2317
upperneck 6.84463 2.25626 5.22102
head 3.77727 1.09146 3.56503
rclavicle -7.61345e-014 5.07149e-014
rhumerus -52.8194 -21.1877 -57.9895
rradius 11.3035
rwrist 77.5871
rhand -11.5377 -344.926
rfingers 7.12502
rthumb 14.5025 -374.399
lclavicle -7.61345e-014 5.07149e-014
lhumerus -408.589 10.8818 -292.528
lradius 15.4034
lwrist -59.7011
lhand -6.48726 351.208
lfingers 7.12502
lthumb 19.3639 380.264
rfemur 191.377 -197.052 199.256
rtibia 16.5586
rfoot -16.005 -34.5051
rtoes 27.6376
lfemur 1.13622 -24.5703 -18.2912
ltibia 29.4943
lfoot -5.14513 30.659
ltoes 15.2532
434
root 14.9853 1.27591 1.04398 -721.418 -84.3507 -99.9239
lowerback 16.8727 -2.76064 2.80443
upperback 0.268522 -3.3048 -1.14388
thorax -9.42312 -1.77347 -2.00468
lowerneck -11.8758 0.706614 -11.1803
upperneck 6.80052 2.21696 5.21943
head 3.77634 1.07501 3.55409
rclavicle 2.0276e-014 1.47846e-015
rhumerus -52.815 -21.2557 -57.8813
rradius 11.3081
rwrist 77.8371
rhand -11.317 -345.04
rfingers 7.12502
rthumb 14.7151 -374.498
lclavicle 2.0276e-014 1.47846e-015
lhumerus -408.575 10.8034 -292.485
lradius 15.4202
lwrist -59.5791
lhand -6.52802 351.212
lfingers 7.12502
lthumb 19.3247 380.272
rfemur 191.48 -197.615 199.453
rtibia 16.5225
rfoot -16.8644 -34.4599
rtoes 27.7201
lfemur 1.1547 -24.4472 -18.2402
ltibia 29.5042
lfoot -5.60152 30.6903
ltoes 15.5884
